<svg width="512" height="512" viewBox="0 0 512 512" fill="none" xmlns="http://www.w3.org/2000/svg">
  <defs>
    <linearGradient id="g1" x1="84" y1="72" x2="430" y2="436" gradientUnits="userSpaceOnUse">
      <stop stop-color="#0F172A"/>
      <stop offset="1" stop-color="#22D3EE"/>
    </linearGradient>
    <linearGradient id="g2" x1="114" y1="112" x2="352" y2="380" gradientUnits="userSpaceOnUse">
      <stop stop-color="#FFFFFF" stop-opacity="0.96"/>
      <stop offset="1" stop-color="#DFF8FF" stop-opacity="0.88"/>
    </linearGradient>
  </defs>

  <rect x="38" y="38" width="436" height="436" rx="140" fill="url(#g1)"/>

  <path d="M146 192C146 162.3 169.9 138 199.4 138H312.6C342.1 138 366 162.3 366 192V198.5C366 206.5 359.5 213 351.5 213H160.5C152.5 213 146 206.5 146 198.5V192Z" fill="url(#g2)"/>

  <path d="M128 206C128 180.6 148.6 160 174 160H338C363.4 160 384 180.6 384 206V360C384 386.9 362.2 408.7 335.3 408.7H176.7C149.8 408.7 128 386.9 128 360V206Z" fill="url(#g2)"/>

  <path d="M156 222C156 214.3 162.3 208 170 208H342C349.7 208 356 214.3 356 222V234C356 241.7 349.7 248 342 248H170C162.3 248 156 241.7 156 234V222Z" fill="#D8F7F7" opacity="0.82"/>

  <path d="M170 242L256 286L342 242V346C342 362.5 328.5 376 312 376H200C183.5 376 170 362.5 170 346V242Z" fill="url(#g1)"/>
  <path d="M170 242L256 286L342 242" stroke="#13293D" stroke-width="10" stroke-linecap="round" stroke-linejoin="round" opacity="0.78"/>
  <path d="M256 286V376" stroke="#13293D" stroke-width="10" stroke-linecap="round" opacity="0.78"/>

  <path d="M256 258C290 258 318 286 318 320C318 354 290 382 256 382C222 382 194 354 194 320C194 286 222 258 256 258Z" fill="#0F172A"/>
  <path d="M256 280C278 280 296 298 296 320C296 342 278 360 256 360C234 360 216 342 216 320C216 298 234 280 256 280Z" fill="#22D3EE"/>
  <circle cx="256" cy="320" r="18" fill="#13293D"/>

  <path d="M326 162L352 136" stroke="#DFF8FF" stroke-width="16" stroke-linecap="round"/>
  <path d="M160 378L186 352" stroke="#DFF8FF" stroke-width="12" stroke-linecap="round" opacity="0.8"/>
</svg>
